#!OML:ASF F:\VICON\USERDATA\INSTALL\rory3\rory3.ASF
:FULLY-SPECIFIED
:DEGREES
64
root -0.0189 17.6242 -61.4148 5.67854 0.1987 -6.08757
lowerback 16.8433 1.48804 6.48774
upperback 1.18724 3.23218 0.65317
thorax -7.85087 1.34155 -3.71622
lowerneck -6.5046 -0.0179042 -0.22231
upperneck -10.8432 -0.0642656 -0.624607
head -2.31183 -0.0118895 -0.159663
rclavicle 2.4376e-014 1.02374e-014
rhumerus -16.4032 10.5931 -86.9397
rradius 104.826
rwrist -2.49156
rhand -37.303 36.065
rfingers 7.12502
rthumb -10.3669 6.34057
lclavicle 2.4376e-014 1.02374e-014
lhumerus -55.5681 -5.61187 93.8193
lradius 103.656
lwrist 28.8265
lhand -38.7679 11.3376
lfingers 7.12502
lthumb -11.7799 40.9864
rfemur 4.80556 8.25325 32.8835
rtibia 29.6259
rfoot -8.13249 -2.65994
rtoes -17.133
lfemur -50.0149 11.6075 -13.2017
ltibia 103.954
lfoot 7.84262 -10.44
ltoes -11.6925
65
root -0.0188 17.7412 -61.2519 5.7456 0.1987 -6.39446
lowerback 16.5751 1.60153 6.88792
upperback 1.25894 3.43136 0.655634
thorax -7.57956 1.4375 -3.96656
lowerneck -7.43824 -0.107632 -0.611938
upperneck -10.3209 -0.12752 -0.240417
head -1.98072 -0.0381825 0.0259669
rclavicle -2.95195e-014 1.98785e-016
rhumerus -15.7257 11.2592 -86.7755
rradius 105.715
rwrist -3.70911
rhand -36.2502 35.0678
rfingers 7.12502
rthumb -9.35122 5.29517
lclavicle -2.95195e-014 1.98785e-016
lhumerus -56.1959 -4.9604 93.5511
lradius 103.594
lwrist 28.2947
lhand -39.3191 11.1076
lfingers 7.12502
lthumb -12.3113 40.7252
rfemur 7.825 8.54988 33.1054
rtibia 26.457
rfoot -4.1918 -1.70716
rtoes -16.354
lfemur -51.0485 10.5433 -13.091
ltibia 100.387
lfoot 7.33675 -10.0145
ltoes -9.55644
66
root -0.0188 17.888 -61.089 5.6665 0.1987 -6.74679
lowerback 16.4376 1.5381 7.49324
upperback 1.29039 3.446 0.658445
thorax -7.4326 1.43247 -4.29904
lowerneck -8.16814 -0.227695 -0.783098
upperneck -9.99871 -0.258343 -0.085034
head -1.75401 -0.100581 0.100757
rclavicle 3.23025e-016 1.33186e-014
rhumerus -15.3615 11.9672 -86.5781
rradius 106.631
rwrist -4.71583
rhand -36.7522 34.7882
rfingers 7.12502
rthumb -9.83558 5.0379
lclavicle 3.23025e-016 1.33186e-014
lhumerus -57.0314 -4.13427 93.2573
lradius 103.554
lwrist 27.0687
lhand -38.7438 9.63349
lfingers 7.12502
lthumb -11.7566 39.2835
rfemur 11.1769 8.61242 33.4843
rtibia 22.6768
rfoot 1.28116 -1.115
rtoes -12.3949
lfemur -51.8333 8.92724 -12.823
ltibia 96.1236
lfoot 7.65082 -9.2336
ltoes -10.236
67
root -0.0188 17.9863 -60.926 5.59216 0.1987 -6.83542
lowerback 15.828 1.42923 7.99277
upperback 1.30401 3.33037 0.58049
thorax -7.0612 1.37905 -4.60835
lowerneck -8.6473 -0.294915 -0.836107
upperneck -9.48995 -0.330798 0.0113281
head -1.51161 -0.137233 0.13692
rclavicle 5.69021e-015 1.85864e-014
rhumerus -15.3369 12.7404 -86.4088
rradius 107.55
rwrist -5.38
rhand -37.7414 35.2003
rfingers 7.12502
rthumb -10.7898 5.49741
lclavicle 5.69021e-015 1.85864e-014
lhumerus -58.0394 -3.29854 92.9003
lradius 103.736
lwrist 26.9474
lhand -37.8488 10.1337
lfingers 7.12502
lthumb -10.8934 39.8312
rfemur 14.8346 8.44642 33.5139
rtibia 18.2764
rfoot 8.01144 -1.81141
rtoes -3.66257
lfemur -52.1039 7.32382 -12.8313
ltibia 92.1073
lfoot 7.21447 -8.72201
ltoes -13.3626
68
root -0.0187 18.0688 -60.7631 5.48568 0.1987 -6.52313
lowerback 15.2227 1.49405 8.06172
upperback 1.1368 3.36571 0.365042
thorax -6.88408 1.39678 -4.85944
lowerneck -8.42661 -0.375735 -0.884228
upperneck -8.91278 -0.427322 0.145272
head -1.36306 -0.186318 0.18424
rclavicle -1.71949e-014 4.37326e-015
rhumerus -15.8842 13.3215 -86.3792
rradius 108.681
rwrist -6.19898
rhand -36.5331 35.5613
rfingers 7.12502
rthumb -9.6242 5.80112
lclavicle -1.71949e-014 4.37326e-015
lhumerus -59.3771 -2.80213 92.6228
lradius 103.823
lwrist 26.7474
lhand -37.0999 10.7131
lfingers 7.12502
lthumb -10.1711 40.4472
rfemur 18.9631 8.55973 33.1434
rtibia 13.0188
rfoot 13.7371 -1.72656
rtoes -1.09002
lfemur -52.0926 5.98607 -13.2089
ltibia 87.9028
lfoot 5.79839 -8.16268
ltoes -13.1252
69
root -0.0187 18.1579 -60.6002 5.40118 0.1987 -6.17216
lowerback 14.6758 1.56551 7.99356
upperback 0.836872 3.39792 0.116048
thorax -6.88792 1.40406 -5.07513
lowerneck -7.41671 -0.537185 -0.697331
upperneck -8.76072 -0.662782 0.154687
head -1.47853 -0.30978 0.156668
rclavicle -3.8763e-015 -2.18663e-014
rhumerus -16.7525 13.6999 -86.4346
rradius 110.161
rwrist -7.13732
rhand -32.865 31.2926
rfingers 7.12502
rthumb -6.08387 1.39993
lclavicle -3.8763e-015 -2.18663e-014
lhumerus -61.0086 -2.45135 92.2784
lradius 104.078
lwrist 26.458
lhand -36.8421 11.0551
lfingers 7.12502
lthumb -9.92229 40.8013
rfemur 23.6257 8.51829 32.8228
rtibia 6.38478
rfoot 20.6401 -2.67878
rtoes 3.70047
lfemur -52.0013 4.63701 -13.5495
ltibia 83.4929
lfoot 5.27649 -7.91881
ltoes -13.1182
70
root -0.0187 18.2546 -60.4373 5.10738 0.1987 -5.97773
lowerback 14.7112 1.3698 8.004
upperback 0.636445 3.14886 0.0154952
thorax -7.15415 1.26287 -5.15093
lowerneck -6.80394 -0.74816 -0.67069
upperneck -8.65159 -0.947847 0.201194
head -1.54348 -0.453608 0.166696
rclavicle 4.82053e-015 -3.37934e-015
rhumerus -17.3033 14.2085 -86.3285
rradius 110.889
rwrist -6.58325
rhand -33.3217 32.305
rfingers 7.12502
rthumb -6.52479 2.42554
lclavicle 4.82053e-015 -3.37934e-015
lhumerus -62.2479 -2.06449 91.9848
lradius 104.25
lwrist 26.2646
lhand -36.9296 11.3097
lfingers 7.12502
lthumb -10.0067 41.0518
rfemur 28.143 7.84694 32.749
rtibia 8.26944e-014
rfoot 28.0007 -4.10975
rtoes 8.03724
lfemur -51.6485 2.84377 -13.5501
ltibia 78.7167
lfoot 5.47242 -8.12717
ltoes -13.3603
71
root -0.0187 18.346 -60.2744 4.84054 0.1987 -6.24307
lowerback 15.0401 1.06729 8.41068
upperback 0.400387 2.86717 0.0692306
thorax -7.62081 1.0826 -5.2915
lowerneck -6.5852 -0.90608 -0.609939
upperneck -8.28378 -1.16488 0.16274
head -1.46218 -0.563975 0.143126
rclavicle -2.80286e-014 -2.98177e-015
rhumerus -17.915 14.7915 -86.2642
rradius 111.596
rwrist -6.10797
rhand -33.9013 33.2479
rfingers 7.12502
rthumb -7.08433 3.38648
lclavicle -2.80286e-014 -2.98177e-015
lhumerus -63.2536 -1.73689 91.7011
lradius 104.316
lwrist 26.1369
lhand -36.4856 10.553
lfingers 7.12502
lthumb -9.57838 40.3153
rfemur 29.2886 7.08763 33.2399
rtibia 1.36764e-013
rfoot 32.4844 -4.7401
rtoes 11.674
lfemur -51.2407 1.16217 -12.9846
ltibia 73.6988
lfoot 6.00855 -8.44448
ltoes -12.6787
72
root -0.0186 18.4301 -60.1114 4.84113 0.1987 -6.59142
lowerback 14.974 0.919032 8.83894
upperback 0.170217 2.7587 0.145602
thorax -7.83754 0.997588 -5.43251
lowerneck -6.52755 -0.96094 -0.580123
upperneck -7.82602 -1.24358 0.0684683
head -1.32724 -0.603915 0.107141
rclavicle 3.8266e-015 -4.57205e-015
rhumerus -18.5465 15.5109 -86.2736
rradius 112.213
rwrist -5.24804
rhand -33.9405 32.3374
rfingers 7.12502
rthumb -7.12214 2.47729
lclavicle 3.8266e-015 -4.57205e-015
lhumerus -64.1189 -1.44166 91.4616
lradius 104.565
lwrist 26.0603
lhand -36.1179 11.0658
lfingers 7.12502
lthumb -9.22361 40.8441
rfemur 30.2702 6.82928 33.7993
rtibia -3.49861e-014
rfoot 36.5303 -4.69158
rtoes 15.2728
lfemur -50.8505 -0.0575346 -12.3738
ltibia 68.4508
lfoot 6.63434 -8.67449
ltoes -12.0769
73
root -0.0186 18.5008 -59.9485 5.03566 0.1987 -6.6396
lowerback 14.6622 0.872655 8.84927
upperback 0.0311484 2.68008 0.199569
thorax -7.8286 0.957034 -5.35373
lowerneck -7.17881 -1.00011 -0.721154
upperneck -6.94621 -1.28273 -0.00369319
head -0.946137 -0.621726 0.100318
rclavicle -2.68359e-015 2.20651e-014
rhumerus -18.8023 16.1693 -86.1129
rradius 112.046
rwrist -4.19511
rhand -35.6659 36.7891
rfingers 7.12502
rthumb -8.78741 6.99207
lclavicle -2.68359e-015 2.20651e-014
lhumerus -64.7851 -1.1099 91.3484
lradius 105.073
lwrist 25.9501
lhand -36.8763 12.7689
lfingers 7.12502
lthumb -9.95532 42.5134
rfemur 31.2332 6.79761 34.1008
rtibia -5.08889e-014
rfoot 39.3684 -4.00305
rtoes 16.9162
lfemur -50.3748 -0.87689 -12.1635
ltibia 63.0627
lfoot 6.89034 -8.82939
ltoes -14.3106
74
root -0.0186 18.5568 -59.7856 5.19765 0.1987 -6.56072
lowerback 14.4393 0.90721 8.71169
upperback -0.018573 2.68372 0.2105
thorax -7.76267 0.966672 -5.25625
lowerneck -8.01682 -1.14329 -0.779722
upperneck -6.08382 -1.46542 -0.244134
head -0.549799 -0.714566 0.0257215
rclavicle 1.6847e-014 -1.09332e-014
rhumerus -19.1336 16.9223 -86.0529
rradius 112.241
rwrist -4.01941
rhand -36.1948 37.9328
rfingers 7.12502
rthumb -9.29778 8.15781
lclavicle 1.6847e-014 -1.09332e-014
lhumerus -65.0229 -0.955601 91.3353
lradius 105.497
lwrist 26.0267
lhand -38.3083 14.5846
lfingers 7.12502
lthumb -11.3366 44.2582
rfemur 32.3132 6.93872 34.3235
rtibia -4.77083e-014
rfoot 40.0783 -3.78403
rtoes 15.1984
lfemur -49.5403 -1.34225 -12.1737
ltibia 57.6591
lfoot 6.98094 -8.80654
ltoes -17.3552
75
root -0.0185 18.6018 -59.6227 5.37251 0.1987 -6.85814
lowerback 14.0812 1.01045 8.97087
upperback 0.00593693 2.82657 0.232247
thorax -7.50186 1.04122 -5.38932
lowerneck -8.00176 -1.21086 -0.621567
upperneck -6.20078 -1.57425 -0.467321
head -0.590624 -0.771464 -0.068364
rclavicle 1.46107e-014 -2.24627e-014
rhumerus -19.4258 17.5509 -86.1635
rradius 112.506
rwrist -3.78426
rhand -36.2927 38.7372
rfingers 7.12502
rthumb -9.39219 8.96645
lclavicle 1.46107e-014 -2.24627e-014
lhumerus -64.8688 -0.968155 91.2526
lradius 105.772
lwrist 26.0746
lhand -38.6189 15.5142
lfingers 7.12502
lthumb -11.6362 45.1711
rfemur 33.4059 7.40196 34.9866
rtibia -1.27222e-014
rfoot 38.5615 -3.87573
rtoes 6.12474
lfemur -48.4561 -1.31385 -11.8723
ltibia 52.3795
lfoot 7.7336 -8.72331
ltoes -16.5774
76
root -0.0185 18.6395 -59.4598 5.36486 0.1987 -7.22027
lowerback 13.9648 1.10122 9.11014
upperback 0.106453 2.96014 0.354174
thorax -7.30606 1.11678 -5.3526
lowerneck -7.82816 -1.09486 -0.675831
upperneck -6.67736 -1.42141 -0.508431
head -0.763586 -0.691133 -0.0668297
rclavicle 9.49197e-015 -4.25399e-014
rhumerus -19.4922 18.2961 -86.1887
rradius 112.424
rwrist -3.26653
rhand -36.4504 39.4121
rfingers 7.12502
rthumb -9.54442 9.64825
lclavicle 9.49197e-015 -4.25399e-014
lhumerus -64.5915 -0.770551 91.3105
lradius 106.093
lwrist 25.9571
lhand -38.5092 14.8199
lfingers 7.12502
lthumb -11.5303 44.4828
rfemur 29.4164 7.94469 35.9956
rtibia 10.456
rfoot 36.1026 -3.59575
rtoes 16.085
lfemur -47.0318 -1.24587 -11.4356
ltibia 47.2704
lfoot 8.80406 -8.0219
ltoes -13.3047
77
root -0.0185 18.6569 -59.2968 5.15769 0.1987 -7.86299
lowerback 14.2842 1.09123 9.58333
upperback 0.149506 3.07098 0.539476
thorax -7.41014 1.15186 -5.45346
lowerneck -8.2923 -1.0341 -0.763725
upperneck -6.36206 -1.32551 -0.489973
head -0.593426 -0.64331 -0.0491466
rclavicle 1.65985e-014 -7.7526e-015
rhumerus -19.9561 18.9005 -86.3288
rradius 112.336
rwrist -2.9442
rhand -36.5723 40.2245
rfingers 7.12502
rthumb -9.66202 10.4661
lclavicle 1.65985e-014 -7.7526e-015
lhumerus -64.4115 -0.785363 91.4265
lradius 106.493
lwrist 25.968
lhand -38.8221 14.0894
lfingers 7.12502
lthumb -11.8321 43.7351
rfemur 27.8608 8.38344 37.1081
rtibia 16.3959
rfoot 34.7598 -3.75743
rtoes 19.5793
lfemur -45.4262 -1.23081 -10.7648
ltibia 42.5685
lfoot 9.18059 -7.30719
ltoes -13.7825
78
root -0.0184 18.6671 -59.1339 4.93262 0.1987 -8.24404
lowerback 14.306 1.07149 9.78002
upperback 0.351343 3.07588 0.67015
thorax -7.19936 1.16784 -5.41918
lowerneck -8.68827 -0.981535 -0.700627
upperneck -6.22291 -1.25863 -0.62161
head -0.490187 -0.612459 -0.100315
rclavicle 1.14301e-015 -1.33186e-014
rhumerus -20.4663 19.3562 -86.525
rradius 112.154
rwrist -2.44124
rhand -36.551 41.0792
rfingers 7.12502
rthumb -9.64146 11.3198
lclavicle 1.14301e-015 -1.33186e-014
lhumerus -63.8426 -0.781346 91.5328
lradius 106.68
lwrist 25.9189
lhand -38.4324 13.4194
lfingers 7.12502
lthumb -11.4563 43.0864
rfemur 26.5646 8.78785 37.8775
rtibia 21.7331
rfoot 33.587 -4.62627
rtoes 20.3834
lfemur -43.7326 -1.34167 -10.3922
ltibia 38.387
lfoot 8.83149 -6.68925
ltoes -16.3539
